<?xml version="1.0" encoding="utf-8"?>
<!-- Generator: Adobe Illustrator 18.0.0, SVG Export Plug-In . SVG Version: 6.00 Build 0)  -->
<!DOCTYPE svg PUBLIC "-//W3C//DTD SVG 1.1//EN" "http://www.w3.org/Graphics/SVG/1.1/DTD/svg11.dtd">
<svg version="1.1" id="Layer_1" xmlns="http://www.w3.org/2000/svg" xmlns:xlink="http://www.w3.org/1999/xlink" x="0px" y="0px"
	 width="262.2px" height="262.2px" viewBox="0 0 262.2 262.2" enable-background="new 0 0 262.2 262.2" xml:space="preserve">
<g>
	
		<rect x="39.2" y="39.2" transform="matrix(0.7071 -0.7071 0.7071 0.7071 -54.3007 131.0943)" fill="#FFFFFF" stroke="#2A2D34" stroke-width="1.547" width="183.8" height="183.8"/>
	<g>
		<path fill="#30333A" d="M228.3,122.6h3.1c1.2,0,2.1,0.2,2.7,0.7c0.6,0.4,0.9,1.2,0.9,2.2c0,1-0.3,1.7-1,2.2
			c-0.6,0.5-1.6,0.7-2.8,0.7h-2.9V122.6z M232,130.8c0.6,0,1.2,0.1,1.6,0.2c0.5,0.1,0.8,0.3,1.1,0.5c0.3,0.2,0.5,0.5,0.6,0.9
			c0.1,0.3,0.2,0.7,0.2,1.1c0,0.4-0.1,0.8-0.2,1.2c-0.1,0.4-0.3,0.7-0.6,0.9c-0.3,0.3-0.6,0.5-1.1,0.7c-0.5,0.2-1,0.2-1.7,0.2h-3.7
			v-5.7H232z M232,139.4c1.1,0,2.2-0.1,3-0.4c0.9-0.3,1.6-0.7,2.2-1.2c0.6-0.5,1.1-1.1,1.4-1.8c0.3-0.7,0.5-1.5,0.5-2.3
			c0-2.3-1.3-3.8-4-4.4c0.6-0.2,1.1-0.5,1.6-0.8c0.4-0.3,0.8-0.6,1.1-1c0.3-0.4,0.5-0.8,0.6-1.2c0.1-0.4,0.2-0.9,0.2-1.3
			c0-0.8-0.1-1.5-0.4-2.2c-0.3-0.6-0.7-1.2-1.3-1.6c-0.6-0.5-1.3-0.8-2.2-1c-0.9-0.2-2-0.4-3.3-0.4h-6.8v19.6H232z M205,125.5
			c0.1-0.3,0.2-0.6,0.4-1c0.1-0.4,0.2-0.8,0.4-1.3c0.1,0.5,0.3,0.9,0.4,1.3c0.1,0.4,0.3,0.7,0.4,1l2.4,6.5h-6.2L205,125.5z
			 M207.6,119.8h-3.7l-7.7,19.6h2.8c0.3,0,0.6-0.1,0.8-0.3c0.2-0.2,0.4-0.4,0.4-0.6l1.5-4h8.1l1.5,4c0.1,0.2,0.2,0.4,0.4,0.6
			c0.2,0.2,0.5,0.2,0.8,0.2h2.8L207.6,119.8z M180.4,119.8h-3.6v19.6h11.5v-3h-7.8V119.8z M151.8,120v2.2h6.3v17.2h2.6v-17.2h6.3
			V120H151.8z M127.3,120H126v19.4h2.3v-13.8c0-0.2,0-0.4,0-0.6c0-0.2,0-0.4,0-0.7l11.2,14.6c0.1,0.2,0.3,0.3,0.4,0.4
			c0.1,0.1,0.3,0.1,0.5,0.1h1.3V120h-2.3v13.8c0,0.2,0,0.4,0,0.6c0,0.2,0,0.5,0.1,0.7l-11.2-14.6c-0.1-0.2-0.3-0.3-0.4-0.4
			C127.7,120,127.6,120,127.3,120 M113.5,120h-2.6v19.4h2.6V120z M88.4,122h2.9c1.5,0,2.6,0.3,3.4,0.9c0.8,0.6,1.1,1.5,1.1,2.6
			c0,0.6-0.1,1.1-0.3,1.6c-0.2,0.5-0.5,0.9-0.9,1.2c-0.4,0.3-0.9,0.6-1.5,0.8c-0.6,0.2-1.3,0.3-2,0.3h-2.8V122z M90.4,131.3
			c0.4,0,0.6,0,0.8,0.1c0.2,0.1,0.3,0.2,0.5,0.5l5,6.9c0.2,0.4,0.6,0.6,1.1,0.6h2.3l-5.7-7.7c-0.3-0.4-0.5-0.6-0.9-0.8
			c0.7-0.2,1.4-0.4,2-0.8c0.6-0.3,1.1-0.7,1.5-1.2c0.4-0.5,0.7-1,0.9-1.6c0.2-0.6,0.3-1.2,0.3-1.9c0-0.8-0.1-1.6-0.4-2.2
			c-0.3-0.7-0.7-1.2-1.3-1.7c-0.6-0.5-1.3-0.8-2.2-1.1c-0.9-0.2-2-0.4-3.2-0.4h-5.5v19.4h2.6v-8.1H90.4z M64.6,122h3.1
			c1.5,0,2.7,0.3,3.5,1c0.8,0.7,1.1,1.7,1.1,2.9c0,0.6-0.1,1.1-0.3,1.6c-0.2,0.5-0.5,0.9-0.9,1.3c-0.4,0.4-0.9,0.6-1.4,0.8
			c-0.6,0.2-1.2,0.3-2,0.3h-3.1V122z M67.7,132.1c1.2,0,2.2-0.2,3.1-0.5c0.9-0.3,1.7-0.7,2.3-1.3c0.6-0.5,1.1-1.2,1.4-1.9
			c0.3-0.7,0.5-1.6,0.5-2.5c0-0.9-0.1-1.7-0.4-2.5c-0.3-0.7-0.7-1.4-1.3-1.9c-0.6-0.5-1.3-0.9-2.3-1.2c-0.9-0.3-2-0.4-3.2-0.4h-5.7
			v19.4h2.6v-7.3H67.7z"/>
		<path fill="#30333A" d="M54.8,134c-2.9,2.6-5,3.7-7.3,3.7c-1,0-1.5-0.7-1.5-2.1v-0.4l0.6-0.2c2.2-0.9,3.3-1.5,4.1-2.3
			c0.8-0.8,1.3-1.8,1.3-2.8c0-1.4-0.8-2.2-2.3-2.2c-3.2,0-6.2,3.8-6.2,7.9c0,1.3,0.6,2.8,1.2,3.6c0.3,0.3,0.8,0.5,1.5,0.5
			c2.7,0,5.4-1,8.4-3.2L54.8,134z M46.3,133.4c0.5-2.1,2-3.9,3.2-3.9c0.4,0,0.6,0.2,0.6,0.6C50.2,131.2,48.7,132.5,46.3,133.4
			L46.3,133.4z M32.8,139.5v-0.1v-0.2c-0.1-1-0.1-1.5-0.1-2.3c0-1.1,0-1.4,0.1-2.4c2.3-2.7,4.2-4.2,5.3-4.2c0.3,0,0.5,0.2,0.5,0.6
			c0,0.4-0.2,1.1-0.6,2.2c-0.7,1.8-1,3-1,3.9c0,1.4,0.9,2.6,2,2.6c1.5,0,3.3-1.1,5-3.1V134c-1.8,2.2-3.4,3.5-4.3,3.5
			c-0.3,0-0.5-0.2-0.5-0.6c0-0.6,0.2-1.3,0.6-2.6c0.6-1.7,0.9-2.8,0.9-3.8c0-1.5-0.6-2.4-1.6-2.4c-0.8,0-1.4,0.3-3,1.3l-0.1-0.1
			c2-2.6,3-4.9,3-6.8c0-1.6-0.9-2.7-2.1-2.7c-0.7,0-1.5,0.4-2.1,1.1c-1.7,1.8-3.3,5.4-4.1,9.5c-0.3,1.8-0.7,4.3-0.7,5.2
			c0,0.4,0.1,1,0.1,1.9c0.1,0.4,0.1,1.1,0.2,2L32.8,139.5z M33.1,131.6c0.2-1.3,0.3-1.9,0.6-3.2c0.6-2,1.4-4.4,2-5.4
			c0.4-0.8,0.9-1.3,1.3-1.3c0.3,0,0.6,0.4,0.6,1.1C37.5,124.9,36.2,127.5,33.1,131.6L33.1,131.6L33.1,131.6z M26.7,122l-2.1,6.4
			h-0.2c-0.8,0.1-1.1,0.2-1.1,0.5l-0.1,1.2l0.9-0.1l-0.2,0.8c-0.7,2.3-0.8,3.4-0.8,4.7c0,2.5,1,4.1,2.4,4.1c0.7,0,1.6-0.3,2.7-1
			c0.9-0.6,1.5-1,2.7-2.1V134c-1.3,1.3-2,2-3.2,2.7c-0.5,0.4-0.9,0.6-1.2,0.6c-0.5,0-0.9-1-0.9-2.5c0-1.3,0.2-2.5,0.8-4.6l0.1-0.5
			c0.8-0.1,1.2-0.1,1.7-0.1c0.4,0,0.7,0,1.2,0l0.4-1.7c-0.5,0-0.7,0-1,0c-0.3,0-0.8,0-1.3,0h-0.3l2-6.1L26.7,122z"/>
	</g>
	<line fill="none" stroke="#2A2D34" stroke-width="1.547" x1="23" y1="108.9" x2="239.2" y2="108.9"/>
	<line fill="none" stroke="#2A2D34" stroke-width="1.547" x1="23" y1="153.3" x2="239.2" y2="153.3"/>
	<line fill="none" stroke="#2A2D34" stroke-width="1.547" stroke-linecap="round" x1="74.8" y1="153.4" x2="156.3" y2="234.9"/>
	<line fill="none" stroke="#2A2D34" stroke-width="1.547" stroke-linecap="round" x1="186.8" y1="153.5" x2="130.8" y2="209.4"/>
	<g>
		<path fill="#5691BB" d="M140.2,69.7c9.6,19.8,30.9,0,30.9,0S149.8,50,140.2,69.7z"/>
		
			<path fill="none" stroke="#2A2D34" stroke-width="1.528" stroke-linecap="round" stroke-linejoin="round" stroke-miterlimit="10" d="
			M140.2,69.7c9.6,19.8,30.9,0,30.9,0S149.8,50,140.2,69.7z"/>
		<path fill="#C4D628" d="M122,69.7c-9.6,19.8-30.9,0-30.9,0S112.4,50,122,69.7z"/>
		
			<path fill="none" stroke="#2A2D34" stroke-width="1.528" stroke-linecap="round" stroke-linejoin="round" stroke-miterlimit="10" d="
			M122,69.7c-9.6,19.8-30.9,0-30.9,0S112.4,50,122,69.7z"/>
		<path fill="#85B73E" d="M124.7,63.6c8.1-21.1-20.8-20.8-20.8-20.8S103.6,71.7,124.7,63.6z"/>
		
			<path fill="none" stroke="#2A2D34" stroke-width="1.528" stroke-linecap="round" stroke-linejoin="round" stroke-miterlimit="10" d="
			M124.7,63.6c8.1-21.1-20.8-20.8-20.8-20.8S103.6,71.7,124.7,63.6z"/>
		<path fill="#5B6B78" d="M138.1,63.6c21.1,8.1,20.8-20.8,20.8-20.8S130,42.5,138.1,63.6z"/>
		
			<path fill="none" stroke="#2A2D34" stroke-width="1.528" stroke-linecap="round" stroke-linejoin="round" stroke-miterlimit="10" d="
			M138.1,63.6c21.1,8.1,20.8-20.8,20.8-20.8S130,42.5,138.1,63.6z"/>
		<path fill="#2A2D34" d="M131.5,60.5c19.8-9.6,0-30.9,0-30.9S111.7,50.9,131.5,60.5z"/>
		
			<path fill="none" stroke="#2A2D34" stroke-width="1.528" stroke-linecap="round" stroke-linejoin="round" stroke-miterlimit="10" d="
			M131.5,60.5c19.8-9.6,0-30.9,0-30.9S111.7,50.9,131.5,60.5z"/>
		<path fill="#FFFFFF" d="M134.1,76.9L134.1,76.9c2.2-2.4,5.4-4,7-5c2.3-1.5,7-4.1,7-9.6c0-5.4-4.7-8.7-8.6-8.7
			c-3.9,0-6.4,2.1-8,4.8c-1.6-2.6-4.2-4.8-8-4.8s-8.6,3.2-8.6,8.7c0,5.5,4.7,8.1,7,9.6c1.5,1,4.7,2.7,6.9,5"/>
		<path fill="none" stroke="#2A2D34" stroke-width="1.528" stroke-linecap="round" stroke-miterlimit="10" d="M134.1,76.9
			L134.1,76.9c2.2-2.4,5.4-4,7-5c2.3-1.5,7-4.1,7-9.6c0-5.4-4.7-8.7-8.6-8.7c-3.9,0-6.4,2.1-8,4.8c-1.6-2.6-4.2-4.8-8-4.8
			s-8.6,3.2-8.6,8.7c0,5.5,4.7,8.1,7,9.6c1.5,1,4.7,2.7,6.9,5"/>
		<path fill="#DFE0DB" d="M158.1,97c0,0-29.7,0.2-24-20.1c1.5-1.6,3.3-2.8,4.9-3.8C158.3,69.3,158.1,97,158.1,97"/>
		<path fill="none" stroke="#2A2D34" stroke-width="1.528" stroke-linecap="round" stroke-miterlimit="10" d="M158.1,97
			c0,0-29.7,0.2-24-20.1c1.5-1.6,3.3-2.8,4.9-3.8C158.3,69.3,158.1,97,158.1,97z"/>
		<path fill="#DFE0DB" d="M128.7,76.9L128.7,76.9c5.4,20.2-23.9,20.1-23.9,20.1s-0.2-27.8,19.3-23.8
			C125.6,74.3,127.4,75.5,128.7,76.9"/>
		<path fill="none" stroke="#2A2D34" stroke-width="1.528" stroke-linecap="round" stroke-miterlimit="10" d="M128.7,76.9
			L128.7,76.9c5.4,20.2-23.9,20.1-23.9,20.1s-0.2-27.8,19.3-23.8C125.6,74.3,127.4,75.5,128.7,76.9z"/>
		<path fill="#2A2D34" d="M112.4,220.7l4,4l1.2-1.2l-2.8-2.8l1.2-1.2l2.5,2.5l1.2-1.2l-2.5-2.5l1.1-1.1l2.6,2.6l1.2-1.2l-3.9-3.9
			L112.4,220.7z M102.3,210.6l1.3,1.3l4.4-4.4l0,0l-2.9,5.8l1,1l5.9-2.9l0,0l-4.4,4.4l1.3,1.3l5.7-5.7l-1.9-1.9l-5.1,2.4l0,0l2.4-5
			l-1.9-1.9L102.3,210.6z M97.5,205.8l1.3,1.3l5.7-5.7l-1.3-1.3L97.5,205.8z M95.7,194.8l0.8,0.8c0.5,0.5,0.9,1.1,0.3,1.6
			c-0.6,0.6-1.2,0-1.7-0.4l-0.7-0.7L95.7,194.8z M89.8,198.2l1.3,1.3l2.3-2.3l0.6,0.6l-1.1,3.5l1.5,1.5l1-3.9c1,0.7,2,0.5,2.8-0.3
			c1.3-1.3,0.8-2.7-0.4-3.9l-2.2-2.2L89.8,198.2z M88.2,187.3l0.6,0.6c0.5,0.5,1,1.2,0.4,1.8c-0.5,0.5-1.1,0.2-1.6-0.2l-0.8-0.8
			L88.2,187.3z M82.3,190.7l1.3,1.3l2.2-2.2l0.9,0.9c1.2,1.2,2.5,1.7,3.9,0.4c1.4-1.4,0.8-2.7-0.4-3.9l-2.1-2.1L82.3,190.7z
			 M72.3,180.6l1.3,1.3l4.4-4.4l0,0l-2.9,5.8l1,1l5.9-2.9l0,0l-4.4,4.4l1.3,1.3l5.7-5.7l-1.9-1.9l-5.1,2.4l0,0l2.4-5l-1.9-1.9
			L72.3,180.6z M67.4,175.8l1.3,1.3l5.7-5.7l-1.3-1.3L67.4,175.8z"/>
		<path fill="#2A2D34" d="M142.4,174.7h3.7v-1.1h-2.5v-1.1h2.3v-1.1h-2.3v-1h2.4v-1.1h-3.6V174.7z M136.2,174.7h3.3v-1.1h-2.1v-4.2
			h-1.2V174.7z M131.7,174.7h1.2v-5.3h-1.2V174.7z M123.8,174.7h1.2v-2.3h2.2v2.3h1.2v-5.3h-1.2v2H125v-2h-1.2V174.7z M120.9,170.1
			c-0.4-0.6-1.2-0.8-1.8-0.8c-1.6,0-2.8,1.1-2.8,2.8c0,1.7,1.2,2.8,2.8,2.8c0.7,0,1.5-0.3,1.9-0.9l-1-0.7c-0.2,0.4-0.6,0.6-1.1,0.6
			c-0.8,0-1.5-0.7-1.5-1.7c0-1,0.6-1.7,1.5-1.7c0.4,0,0.8,0.2,1,0.4L120.9,170.1z"/>
		<path fill="#2A2D34" d="M192,170.3c-0.9,0.1-1.7,0.5-2.3,1.2c-1.1,1.1-1.5,2.8-0.3,4c1.9,1.9,4-1.3,5.1-0.3
			c0.4,0.4,0.1,1.1-0.3,1.5c-0.4,0.4-1,0.6-1.6,0.6l0.1,1.9c1,0,1.9-0.5,2.6-1.2c1.2-1.2,1.6-2.8,0.3-4.1c-2-2-4,1.3-5,0.3
			c-0.4-0.4-0.1-1.1,0.3-1.4c0.3-0.3,0.8-0.6,1.3-0.5L192,170.3z M182.6,184.5c-1.1-1.1-1.1-2.5-0.1-3.6c1.1-1.1,2.6-1,3.6,0.1
			c1.1,1.1,1.1,2.5,0.1,3.6C185.1,185.7,183.7,185.6,182.6,184.5 M181.3,185.9c1.8,1.8,4.3,1.7,6.1-0.1c1.8-1.8,1.9-4.3,0.1-6.1
			c-1.8-1.8-4.3-1.7-6.1,0.1C179.6,181.5,179.5,184,181.3,185.9 M178.5,194.4l1.3-1.3l-4.6-4.6l1.6-1.6l-1.1-1.1l-4.5,4.5l1.1,1.1
			l1.6-1.6L178.5,194.4z M166.4,200.8c-1.1-1.1-1.1-2.5-0.1-3.6c1.1-1.1,2.6-1,3.6,0.1c1.1,1.1,1.1,2.5,0.1,3.6
			C168.9,201.9,167.5,201.8,166.4,200.8 M165.1,202.1c1.8,1.8,4.3,1.7,6.1-0.1c1.8-1.8,1.9-4.3,0.1-6.1c-1.8-1.8-4.3-1.7-6.1,0.1
			C163.4,197.8,163.2,200.2,165.1,202.1 M161.1,211.8l1.3-1.3l-2.2-2.2l2.4-2.4l-1.2-1.2l-2.4,2.4l-1.2-1.2l2.6-2.6l-1.2-1.2
			l-3.8,3.8L161.1,211.8z"/>
	</g>
</g>
</svg>
