<?xml version="1.0" encoding="utf-8"?>
<!-- Generator: Adobe Illustrator 18.0.0, SVG Export Plug-In . SVG Version: 6.00 Build 0)  -->
<!DOCTYPE svg PUBLIC "-//W3C//DTD SVG 1.1//EN" "http://www.w3.org/Graphics/SVG/1.1/DTD/svg11.dtd">
<svg version="1.1" id="Layer_1" xmlns="http://www.w3.org/2000/svg" xmlns:xlink="http://www.w3.org/1999/xlink" x="0px" y="0px"
	 width="282px" height="28px" viewBox="0 0 282 28" enable-background="new 0 0 282 28" xml:space="preserve">
<g>
	<path fill="#2D2A2B" d="M266.6,4.7h4.1c1.6,0,2.8,0.3,3.6,0.9s1.1,1.5,1.1,2.9c0,1.3-0.4,2.2-1.3,2.8c-0.8,0.6-2.1,0.9-3.7,0.9
		h-3.8V4.7z M271.5,15.5c0.8,0,1.6,0.1,2.2,0.3c0.6,0.2,1.1,0.4,1.5,0.7c0.4,0.3,0.7,0.7,0.8,1.1c0.2,0.4,0.3,1,0.3,1.5
		c0,0.5-0.1,1-0.2,1.5c-0.2,0.5-0.4,0.9-0.8,1.3c-0.4,0.4-0.8,0.6-1.4,0.9c-0.6,0.2-1.4,0.3-2.2,0.3h-4.9v-7.6H271.5z M271.6,26.8
		c1.5,0,2.8-0.2,4-0.6c1.2-0.4,2.2-0.9,3-1.6c0.8-0.7,1.4-1.5,1.8-2.4c0.4-0.9,0.6-1.9,0.6-3c0-3-1.8-5-5.3-5.8
		c0.8-0.3,1.5-0.6,2.1-1c0.6-0.4,1.1-0.8,1.4-1.3c0.4-0.5,0.7-1,0.8-1.6c0.2-0.6,0.3-1.1,0.3-1.7c0-1.1-0.2-2-0.5-2.9
		c-0.4-0.8-0.9-1.6-1.7-2.2c-0.8-0.6-1.8-1.1-3-1.4c-1.2-0.3-2.6-0.5-4.3-0.5h-8.9v25.9H271.6z M236.6,8.5c0.2-0.4,0.3-0.9,0.5-1.4
		c0.2-0.5,0.3-1.1,0.5-1.7c0.2,0.6,0.3,1.2,0.5,1.7c0.2,0.5,0.3,1,0.5,1.4l3.1,8.6h-8.2L236.6,8.5z M240.1,0.9h-4.9L225,26.8h3.7
		c0.4,0,0.7-0.1,1-0.3c0.3-0.2,0.5-0.5,0.6-0.8l1.9-5.3H243l1.9,5.3c0.1,0.3,0.3,0.6,0.6,0.8c0.3,0.2,0.6,0.3,1,0.3h3.7L240.1,0.9z
		 M204.9,0.9h-4.8v25.9h15.2v-4h-10.4V0.9z M168,1.2v2.9h8.3v22.7h3.5V4.1h8.3V1.2H168z M136.4,1.2h-1.8v25.6h3V8.5
		c0-0.2,0-0.5,0-0.8c0-0.3,0-0.6-0.1-0.9l14.8,19.3c0.2,0.2,0.4,0.4,0.5,0.5c0.2,0.1,0.4,0.1,0.7,0.1h1.8V1.2h-3v18.2
		c0,0.3,0,0.6,0,0.9c0,0.3,0,0.6,0.1,0.9L137.6,1.8c-0.2-0.2-0.4-0.4-0.5-0.5C136.9,1.2,136.7,1.2,136.4,1.2 M118.8,1.2h-3.5v25.6
		h3.5V1.2z M86.6,3.9h3.8c2,0,3.5,0.4,4.5,1.2c1,0.8,1.5,1.9,1.5,3.5c0,0.8-0.1,1.4-0.4,2.1c-0.3,0.6-0.7,1.2-1.2,1.6
		c-0.5,0.4-1.2,0.8-1.9,1c-0.8,0.2-1.7,0.4-2.7,0.4h-3.6V3.9z M89.2,16.1c0.5,0,0.8,0.1,1.1,0.2c0.2,0.1,0.5,0.3,0.7,0.6l6.7,9.2
		c0.3,0.5,0.8,0.7,1.4,0.7h3.1l-7.5-10.2c-0.3-0.5-0.7-0.8-1.1-1.1c1-0.2,1.9-0.6,2.7-1c0.8-0.4,1.4-1,2-1.6c0.5-0.6,1-1.3,1.2-2.1
		c0.3-0.8,0.4-1.6,0.4-2.5c0-1.1-0.2-2.1-0.6-2.9c-0.4-0.9-0.9-1.6-1.7-2.2c-0.8-0.6-1.7-1.1-2.9-1.4c-1.2-0.3-2.6-0.5-4.2-0.5h-7.2
		v25.6h3.5V16.1H89.2z M55.8,3.9h4.1c2,0,3.6,0.5,4.6,1.4c1,0.9,1.5,2.2,1.5,3.8c0,0.8-0.1,1.5-0.4,2.2c-0.3,0.7-0.6,1.2-1.2,1.7
		c-0.5,0.5-1.1,0.8-1.9,1.1c-0.8,0.3-1.6,0.4-2.6,0.4h-4.1V3.9z M59.9,17.2c1.5,0,2.9-0.2,4.1-0.6c1.2-0.4,2.2-1,3-1.7
		c0.8-0.7,1.4-1.6,1.8-2.6c0.4-1,0.6-2.1,0.6-3.3c0-1.2-0.2-2.3-0.6-3.3c-0.4-1-1-1.8-1.8-2.5c-0.8-0.7-1.8-1.2-3-1.6
		c-1.2-0.4-2.6-0.6-4.2-0.6h-7.6v25.6h3.5v-9.6H59.9z"/>
	<path fill="#2D2A2B" d="M42.9,19.7c-3.9,3.5-6.7,4.9-9.6,4.9c-1.3,0-1.9-0.9-1.9-2.8v-0.6l0.8-0.3c2.9-1.2,4.4-2,5.4-3.1
		c1.1-1.1,1.7-2.4,1.7-3.7c0-1.8-1.1-2.9-3-2.9c-4.2,0-8.1,5-8.1,10.4c0,1.7,0.7,3.7,1.6,4.7c0.4,0.5,1,0.7,2,0.7
		c3.6,0,7.2-1.3,11-4.2L42.9,19.7z M31.7,18.9c0.6-2.8,2.6-5.2,4.3-5.2c0.5,0,0.8,0.3,0.8,0.8C36.9,16,34.9,17.7,31.7,18.9
		L31.7,18.9z M13.9,27v-0.2v-0.2c-0.1-1.3-0.1-1.9-0.1-3.1c0-1.4,0-1.8,0.2-3.2c3-3.5,5.6-5.5,7-5.5c0.4,0,0.6,0.3,0.6,0.8
		c0,0.5-0.3,1.4-0.8,2.9c-0.9,2.4-1.3,3.9-1.3,5.2c0,1.9,1.2,3.4,2.7,3.4c2,0,4.4-1.5,6.6-4.1v-3.2c-2.4,3-4.4,4.6-5.6,4.6
		c-0.4,0-0.6-0.3-0.6-0.8c0-0.7,0.2-1.7,0.8-3.4c0.8-2.2,1.2-3.7,1.2-5c0-2-0.8-3.2-2.2-3.2c-1,0-1.8,0.3-4,1.7l-0.1-0.1
		c2.7-3.5,4-6.4,4-9c0-2.1-1.2-3.6-2.8-3.6c-0.9,0-2,0.5-2.8,1.4c-2.2,2.3-4.3,7.2-5.4,12.5c-0.5,2.3-0.9,5.7-0.9,6.8
		c0,0.5,0.1,1.3,0.2,2.5c0.1,0.6,0.2,1.5,0.2,2.7L13.9,27z M14.3,16.6c0.2-1.8,0.4-2.5,0.8-4.2c0.7-2.7,1.9-5.8,2.6-7.1
		c0.6-1.1,1.2-1.7,1.7-1.7s0.7,0.5,0.7,1.4C20.1,7.7,18.3,11.2,14.3,16.6l0-0.1L14.3,16.6z M5.9,3.9l-2.8,8.4H2.8
		c-1,0.1-1.4,0.3-1.5,0.6l-0.2,1.5l1.2-0.2l-0.3,1.1C1.2,18.5,1,19.8,1,21.6C1,24.8,2.3,27,4.2,27c0.9,0,2.1-0.4,3.5-1.3
		c1.2-0.7,2-1.4,3.6-2.8v-3.2c-1.7,1.7-2.7,2.6-4.2,3.6c-0.7,0.5-1.2,0.7-1.6,0.7c-0.7,0-1.2-1.3-1.2-3.3c0-1.7,0.3-3.3,1.1-6.1
		l0.2-0.6C6.7,14,7.2,14,7.9,14c0.6,0,0.9,0,1.6,0l0.5-2.3c-0.6,0-0.9,0-1.3,0c-0.5,0-1,0-1.7,0H6.4l2.7-8.1L5.9,3.9z"/>
</g>
</svg>
